<svg width="400" height="200" viewBox="100 60 410 274" fill="none" xmlns="http://www.w3.org/2000/svg">
<path opacity="0.31" d="M-4.85043 74.3118C-4.85043 7.2274 286.578 41.2274 393.385 41.2274C480.84 83.5282 198.692 111.177 113.319 135.282C67.5086 135.282 230.447 198.142 19.6163 274C-87.1908 274 -4.85043 141.396 -4.85043 74.3118Z" fill="#9D5852"/>
<path opacity="0.31" d="M-20.4675 69.5855C-20.4675 2.50102 270.961 36.501 377.768 36.501C465.223 78.8018 183.075 106.451 97.7016 130.555C51.8916 130.555 214.83 193.416 3.99924 269.274C-102.808 269.274 -20.4675 136.67 -20.4675 69.5855Z" fill="#BD7169"/>
<path opacity="0.31" d="M-32.4406 63.9139C-32.4406 -3.17055 258.987 30.8295 365.795 30.8295C453.25 73.1303 171.102 100.779 85.7286 124.884C39.9185 124.884 202.857 187.744 -7.97384 263.602C-114.781 263.602 -32.4406 130.998 -32.4406 63.9139Z" fill="#E6E6E6"/>
<path opacity="0.31" d="M-44.9342 58.2421C-44.9342 -8.84231 246.494 25.1577 353.301 25.1577C440.757 67.4585 158.608 95.1076 73.2349 119.212C27.4248 119.212 190.363 182.072 -20.4675 257.93C-127.275 257.93 -44.9342 125.327 -44.9342 58.2421Z" fill="#929292"/>
<path opacity="0.31" d="M-69.9215 48.7894C-69.9215 -18.295 221.506 15.705 328.314 15.705C415.769 58.0058 133.621 85.6549 48.2476 109.759C2.43754 109.759 165.376 172.62 -45.4548 248.478C-152.262 248.478 -69.9215 115.874 -69.9215 48.7894Z" fill="#666666"/>
<path opacity="0.31" d="M-89.7032 41.7001C-89.7032 -25.3844 201.725 8.61565 308.532 8.61565C395.988 50.9165 113.839 78.5655 28.466 102.67C-17.3441 102.67 145.594 165.53 -65.2364 241.388C-172.044 241.388 -89.7032 108.785 -89.7032 41.7001Z" fill="#3B434A"/>
</svg>
