<svg width="650" height="950" viewBox="200 150 1250 550" fill="none" xmlns="http://www.w3.org/2000/svg">
<path opacity="0.31" d="M41.7576 482.359C-9.29033 275.645 737.348 202.42 1001.5 137.187C1249.99 214.118 573.216 471.641 380.411 598.059C267.113 626.038 717.928 720.22 254.222 1082.74C-9.93547 1147.97 92.8055 689.073 41.7576 482.359Z" fill="#9D5852"/>
<path opacity="0.31" d="M-0.463317 477.334C-51.5112 270.619 695.127 197.395 959.284 132.161C1207.77 209.093 530.995 466.615 338.19 593.034C224.892 621.013 675.707 715.195 212.001 1077.71C-52.1564 1142.94 50.5846 684.048 -0.463317 477.334Z" fill="#BD7169"/>
<path opacity="0.31" d="M-34.3912 467.17C-85.4391 260.455 661.199 187.231 925.356 121.997C1173.84 198.929 497.067 456.452 304.262 582.87C190.964 610.849 641.779 705.031 178.073 1067.55C-86.0843 1132.78 16.6567 673.884 -34.3912 467.17Z" fill="#E6E6E6"/>
<path opacity="0.31" d="M-69.6068 457.323C-120.655 250.609 625.983 177.384 890.141 112.151C1138.63 189.082 461.851 446.605 269.047 573.023C155.748 601.002 606.563 695.185 142.858 1057.7C-121.3 1122.93 -18.5588 664.037 -69.6068 457.323Z" fill="#929292"/>
<path opacity="0.31" d="M-138.599 443.457C-189.647 236.743 556.991 163.518 821.148 98.2848C1069.63 175.216 392.859 432.739 200.054 559.157C86.7561 587.136 537.571 681.319 73.8654 1043.83C-190.292 1109.07 -87.551 650.172 -138.599 443.457Z" fill="#666666"/>
<path opacity="0.31" d="M-200.303 433.603C-250.634 229.791 500.26 153.955 766.11 88.3032C1015.53 163.063 333.988 420.494 139.572 546.204C25.548 574.362 478.274 665.188 10.4167 1025.25C-255.434 1090.9 -149.971 637.416 -200.303 433.603Z" fill="#3B434A"/>
</svg>
