<svg width="720" height="374" viewBox="0 0 720 374" fill="none" xmlns="http://www.w3.org/2000/svg">
<path opacity="0.31" d="M756.906 371.485C756.906 496.284 225.188 433.033 30.3151 433.033C-129.25 354.339 385.537 302.903 541.303 258.061C624.885 258.061 327.6 141.12 712.266 0C907.139 0 756.906 246.686 756.906 371.485Z" fill="#9D5852"/>
<path opacity="0.31" d="M785.4 380.277C785.4 505.076 253.681 441.825 58.8089 441.825C-100.756 363.132 414.031 311.696 569.797 266.853C653.379 266.853 356.094 149.913 740.76 8.79248C935.632 8.79248 785.4 255.478 785.4 380.277Z" fill="#BD7169"/>
<path opacity="0.31" d="M807.245 390.828C807.245 515.627 275.527 452.376 80.6541 452.376C-78.9112 373.683 435.876 322.247 591.642 277.405C675.224 277.404 377.939 160.464 762.605 19.3436C957.478 19.3436 807.245 266.03 807.245 390.828Z" fill="#E6E6E6"/>
<path opacity="0.31" d="M830.04 401.379C830.04 526.178 298.322 462.927 103.449 462.927C-56.1162 384.234 458.671 332.798 614.437 287.956C698.019 287.955 400.734 171.015 785.4 29.8947C980.273 29.8947 830.04 276.581 830.04 401.379Z" fill="#929292"/>
<path opacity="0.31" d="M875.63 418.964C875.63 543.763 343.912 480.512 149.039 480.512C-10.5261 401.819 504.261 350.383 660.027 305.541C743.609 305.541 446.324 188.6 830.99 47.4797C1025.86 47.4797 875.63 294.166 875.63 418.964Z" fill="#666666"/>
<path opacity="0.31" d="M911.723 432.153C911.723 556.952 380.004 493.701 185.131 493.701C25.566 415.008 540.354 363.571 696.12 318.729C779.701 318.729 482.416 201.789 867.082 60.6685C1061.95 60.6685 911.723 307.354 911.723 432.153Z" fill="#3B434A"/>
</svg>
