<svg width="361" height="950" viewBox="-174 150 361 850" fill="none" xmlns="http://www.w3.org/2000/svg">
<path opacity="0.31" d="M280.116 234.248C282.444 26.1526 89.9068 129.48 19.7753 128.695C-39.1178 259.269 145.187 347.109 200.408 422.508C230.488 422.845 121.318 616.641 257.121 853.5C327.252 854.285 277.788 442.344 280.116 234.248Z" fill="#9D5852"/>
<path opacity="0.31" d="M290.534 219.702C292.862 11.6062 100.325 114.933 30.1937 114.149C-28.6994 244.723 155.605 332.563 210.826 407.962C240.906 408.299 131.736 602.094 267.539 838.954C337.671 839.738 288.206 427.797 290.534 219.702Z" fill="#BD7169"/>
<path opacity="0.31" d="M298.593 202.197C300.921 -5.89904 108.384 97.428 38.2523 96.6434C-20.6408 227.218 163.664 315.058 218.885 390.457C248.965 390.793 139.795 584.589 275.598 821.448C345.729 822.233 296.265 410.292 298.593 202.197Z" fill="#E6E6E6"/>
<path opacity="0.31" d="M306.993 184.694C309.321 -23.4014 116.784 79.9257 46.6527 79.1411C-12.2404 209.716 172.064 297.555 227.285 372.954C257.365 373.291 148.195 567.087 283.998 803.946C354.13 804.731 304.665 392.79 306.993 184.694Z" fill="#929292"/>
<path opacity="0.31" d="M323.729 155.556C326.057 -52.5395 133.52 50.7875 63.388 50.0029C4.49487 180.577 188.799 268.417 244.021 343.816C274.1 344.153 164.931 537.949 300.733 774.808C370.865 775.593 321.401 363.652 323.729 155.556Z" fill="#666666"/>
<path opacity="0.31" d="M338.826 131.915C341.122 -73.26 147.375 28.5729 76.7938 27.7833C17.5533 156.512 203.059 243.161 258.651 317.515C288.923 317.853 179.099 508.904 315.825 742.471C386.406 743.26 336.531 337.089 338.826 131.915Z" fill="#3B434A"/>
</svg>
