<svg width="400" height="200" viewBox="-250 -183 500 400" fill="none" xmlns="http://www.w3.org/2000/svg">
<path opacity="0.31" d="M414.85 199.688C414.85 266.773 123.422 232.773 16.6153 232.773C-70.8404 190.472 211.308 162.823 296.681 138.718C342.491 138.718 179.553 75.8579 390.384 0C497.191 0 414.85 132.604 414.85 199.688Z" fill="#9D5852"/>
<path opacity="0.31" d="M430.467 204.414C430.467 271.499 139.039 237.499 32.2324 237.499C-55.2233 195.198 226.925 167.549 312.298 143.445C358.108 143.445 195.17 80.5842 406.001 4.72632C512.808 4.72632 430.467 137.33 430.467 204.414Z" fill="#BD7169"/>
<path opacity="0.31" d="M442.441 210.086C442.441 277.171 151.013 243.171 44.2055 243.171C-43.2502 200.87 238.898 173.221 324.271 149.116C370.082 149.116 207.143 86.2558 417.974 10.3979C524.781 10.3979 442.441 143.002 442.441 210.086Z" fill="#E6E6E6"/>
<path opacity="0.31" d="M454.934 215.758C454.934 282.842 163.506 248.842 56.6991 248.842C-30.7566 206.541 251.392 178.892 336.765 154.788C382.575 154.788 219.637 91.9276 430.467 16.0697C537.275 16.0697 454.934 148.673 454.934 215.758Z" fill="#929292"/>
<path opacity="0.31" d="M479.922 225.211C479.922 292.295 188.494 258.295 81.6864 258.295C-5.76924 215.994 276.379 188.345 361.752 164.241C407.562 164.241 244.624 101.38 455.455 25.5225C562.262 25.5225 479.922 158.126 479.922 225.211Z" fill="#666666"/>
<path opacity="0.31" d="M499.703 232.3C499.703 299.384 208.275 265.384 101.468 265.384C14.0124 223.083 296.161 195.434 381.534 171.33C427.344 171.33 264.406 108.47 475.236 32.6117C582.044 32.6117 499.703 165.215 499.703 232.3Z" fill="#3B434A"/>
</svg>
