<svg width="835" height="458" viewBox="0 0 835 458" fill="none" xmlns="http://www.w3.org/2000/svg">
<path opacity="0.31" d="M796.917 422.5C796.917 564.437 237.091 492.5 31.9176 492.5C-136.083 403 405.917 344.5 569.917 293.5C657.917 293.5 344.917 160.5 749.917 0C955.091 0 796.917 280.563 796.917 422.5Z" fill="#9D5852"/>
<path opacity="0.31" d="M826.917 432.5C826.917 574.437 267.091 502.5 61.9176 502.5C-106.083 413 435.917 354.5 599.917 303.5C687.917 303.5 374.917 170.5 779.917 10C985.091 10 826.917 290.563 826.917 432.5Z" fill="#BD7169"/>
<path opacity="0.31" d="M849.917 444.5C849.917 586.437 290.091 514.5 84.9176 514.5C-83.0826 425 458.917 366.5 622.917 315.5C710.917 315.5 397.917 182.5 802.917 22C1008.09 22 849.917 302.563 849.917 444.5Z" fill="#E6E6E6"/>
<path opacity="0.31" d="M873.917 456.5C873.917 598.437 314.091 526.5 108.918 526.5C-59.0826 437 482.917 378.5 646.917 327.5C734.917 327.5 421.917 194.5 826.917 34C1032.09 34 873.917 314.563 873.917 456.5Z" fill="#929292"/>
<path opacity="0.31" d="M921.917 476.5C921.917 618.437 362.091 546.5 156.918 546.5C-11.0826 457 530.917 398.5 694.917 347.5C782.917 347.5 469.917 214.5 874.917 54C1080.09 54 921.917 334.563 921.917 476.5Z" fill="#666666"/>
<path opacity="0.31" d="M959.917 491.5C959.917 633.437 400.091 561.5 194.918 561.5C26.9174 472 568.917 413.5 732.917 362.5C820.917 362.5 507.917 229.5 912.917 69C1118.09 69 959.917 349.563 959.917 491.5Z" fill="#3B434A"/>
</svg>
