<svg width="970" height="1024" viewBox="239 150 970 1024" fill="none" xmlns="http://www.w3.org/2000/svg">
<path opacity="0.31" d="M-208.938 409.869C-367.812 67.5292 208.672 10.8667 390.44 -73.4889C639.455 73.3047 224.765 437.24 136.56 627.675C58.5986 663.856 484.763 855.952 305.616 1409.58C123.848 1493.93 -50.0639 752.208 -208.938 409.869Z" fill="#9D5852"/>
<path opacity="0.31" d="M-246.709 398.084C-405.583 55.7445 170.901 -0.918053 352.669 -85.2737C601.684 61.5199 186.994 425.455 98.7888 615.89C20.8277 652.071 446.992 844.167 267.845 1397.79C86.0768 1482.15 -87.8348 740.423 -246.709 398.084Z" fill="#BD7169"/>
<path opacity="0.31" d="M-280.517 378.597C-439.391 36.2581 137.093 -20.4044 318.861 -104.76C567.876 42.0336 153.186 405.969 64.9807 596.404C-12.9804 632.585 413.184 824.681 234.037 1378.3C52.2688 1462.66 -121.643 720.937 -280.517 378.597Z" fill="#E6E6E6"/>
<path opacity="0.31" d="M-315.212 359.521C-474.086 17.1815 102.398 -39.481 284.166 -123.837C533.181 22.9569 118.492 386.892 30.2861 577.327C-47.675 613.508 378.489 805.604 199.342 1359.23C17.5741 1443.58 -156.338 701.86 -315.212 359.521Z" fill="#929292"/>
<path opacity="0.31" d="M-380.122 331.018C-538.996 -11.3212 37.4875 -67.9837 219.256 -152.339C468.271 -5.54576 53.5809 358.39 -34.6246 548.825C-112.586 585.006 313.578 777.101 134.432 1330.72C-47.3366 1415.08 -221.248 673.357 -380.122 331.018Z" fill="#666666"/>
<path opacity="0.31" d="M-436.738 309.692C-593.382 -27.842 -14.8503 -88.415 168.083 -173.311C416.645 -29.9903 -2.04066 333.393 -91.9786 522.533C-170.439 558.946 255.412 745.714 71.4444 1294.97C-111.489 1379.87 -280.094 647.226 -436.738 309.692Z" fill="#3B434A"/>
</svg>
