<svg width="200" height="200" viewBox="0 0 27 40" fill="none" xmlns="http://www.w3.org/2000/svg">
<path d="M26.5 38.5L23.0631 33.8609L20.764 39.1569L26.5 38.5ZM12.2351 0.716893C12.7997 1.88962 12.9161 2.86626 12.7535 3.71007C12.5898 4.55957 12.1325 5.33001 11.4528 6.06738C10.7708 6.80732 9.88426 7.49324 8.89554 8.17414C7.88529 8.86986 6.86467 9.49801 5.80656 10.2102C3.77586 11.577 1.79032 13.1319 1.12724 15.2573C0.444968 17.4443 1.20651 20.0314 4.12561 23.3313L4.87461 22.6687C2.04371 19.4686 1.55524 17.2432 2.08187 15.5552C2.62769 13.8056 4.30997 12.423 6.36494 11.0398C7.34967 10.377 8.47635 9.67701 9.46272 8.99773C10.4706 8.30363 11.43 7.56767 12.1882 6.74511C12.9487 5.91999 13.5257 4.98731 13.7354 3.89931C13.9462 2.80562 13.7751 1.61038 13.1361 0.283107L12.2351 0.716893ZM4.12561 23.3313C10.0699 30.051 17.6659 29.0066 21.6831 25.9801C23.6617 24.4895 24.914 22.3942 24.3979 20.4324C23.8758 18.4478 21.6499 16.9791 17.5579 16.5033L17.4424 17.4966C21.4432 17.9619 23.0762 19.3387 23.4308 20.6868C23.7915 22.0578 22.9385 23.7823 21.0814 25.1814C17.4272 27.9344 10.4303 28.9491 4.87461 22.6687L4.12561 23.3313ZM17.5579 16.5033C13.9329 16.0818 11.5517 16.7091 10.3465 18.2243C9.13952 19.7417 9.2885 21.9249 10.1552 24.1673C11.9002 28.6821 16.7908 34.1075 22.1264 37.1433L22.621 36.2741C17.4465 33.33 12.7349 28.0679 11.0879 23.8068C10.2586 21.6611 10.2642 19.9342 11.1291 18.8468C11.9958 17.7572 13.9019 17.085 17.4424 17.4966L17.5579 16.5033Z" fill="#3B434A"/>
</svg>
