<svg width="168" height="50" viewBox="0 0 168 77" fill="none" xmlns="http://www.w3.org/2000/svg">
<path d="M28.8438 9.375C28.8438 9.75 28.6979 10.2083 28.4062 10.75C28.1562 11.25 27.8021 11.7292 27.3438 12.1875C26.9271 12.6042 26.4479 12.9792 25.9062 13.3125C25.4062 13.6042 24.8854 13.75 24.3438 13.75C23.8854 13.75 23.4688 13.5208 23.0938 13.0625C22.7188 12.6042 22.5521 11.9792 22.5938 11.1875C22.5938 10.6458 22.7396 10.0833 23.0312 9.5C23.3646 8.875 23.7604 8.3125 24.2188 7.8125C24.7188 7.3125 25.2396 6.91667 25.7812 6.625C26.3646 6.29167 26.9062 6.125 27.4062 6.125C28.1146 6.125 28.5312 6.45833 28.6562 7.125C28.8229 7.79167 28.8854 8.54167 28.8438 9.375ZM6.96875 76.375C5.84375 76.375 4.86458 76.0625 4.03125 75.4375C3.19792 74.8125 2.53125 74.0208 2.03125 73.0625C1.48958 72.1042 1.09375 71.0625 0.84375 69.9375C0.59375 68.8125 0.489583 67.75 0.53125 66.75C0.572917 65.875 0.90625 64.75 1.53125 63.375C2.11458 62 2.94792 60.5208 4.03125 58.9375C5.11458 57.3958 6.42708 55.8125 7.96875 54.1875C9.51042 52.6042 11.2188 51.1875 13.0938 49.9375C13.3438 48.6458 13.6146 47.3333 13.9062 46C14.1562 44.625 14.4062 43.3125 14.6562 42.0625C14.9062 40.7708 15.1562 39.5625 15.4062 38.4375C15.6979 37.2708 15.9688 36.25 16.2188 35.375C16.5104 34.25 16.8229 33.0625 17.1562 31.8125C17.4479 30.7292 17.7812 29.5417 18.1562 28.25C18.5312 26.9167 18.9271 25.5833 19.3438 24.25C19.7604 24.0417 20.1562 23.8958 20.5312 23.8125C20.9062 23.7292 21.2396 23.6667 21.5312 23.625C21.8646 23.5833 22.1771 23.5833 22.4688 23.625C22.7604 23.6667 23.0521 23.75 23.3438 23.875C23.8854 24.0833 24.3646 24.4583 24.7812 25C24.0729 27.25 23.4688 29.1667 22.9688 30.75C22.5104 32.3333 22.1146 33.6458 21.7812 34.6875C21.4062 35.8958 21.1146 36.9167 20.9062 37.75C20.5312 38.9167 20.1979 40.25 19.9062 41.75C19.6146 43.2083 19.2812 44.7917 18.9062 46.5C20.6562 45.4167 22.4062 44.1458 24.1562 42.6875C25.9479 41.2292 27.5729 39.8125 29.0312 38.4375C30.5312 37.0208 31.7812 35.7917 32.7812 34.75C33.8229 33.6667 34.4688 32.9792 34.7188 32.6875C35.0104 32.3542 35.3021 32.1875 35.5938 32.1875C35.8854 32.1458 36.1146 32.2292 36.2812 32.4375C36.4896 32.6458 36.5729 32.9583 36.5312 33.375C36.5312 33.75 36.3438 34.1875 35.9688 34.6875C35.3854 35.5208 34.5104 36.5833 33.3438 37.875C32.1771 39.125 30.8438 40.4583 29.3438 41.875C27.8438 43.25 26.2188 44.6458 24.4688 46.0625C22.7604 47.4375 21.0521 48.625 19.3438 49.625C18.9688 49.8333 18.5521 50.1042 18.0938 50.4375C17.5104 52.8958 16.9479 55.3125 16.4062 57.6875C15.8646 60.0625 15.2604 62.2708 14.5938 64.3125C13.9688 66.3125 13.4062 68.0625 12.9062 69.5625C12.4062 71.1042 11.8854 72.375 11.3438 73.375C10.8021 74.375 10.1979 75.125 9.53125 75.625C8.82292 76.125 7.96875 76.375 6.96875 76.375ZM4.71875 68.5C4.63542 69.9583 4.73958 71.0417 5.03125 71.75C5.32292 72.5 5.71875 72.875 6.21875 72.875C6.55208 72.875 6.92708 72.5208 7.34375 71.8125C7.71875 71.1042 8.09375 70.2083 8.46875 69.125C8.80208 68.0417 9.15625 66.8542 9.53125 65.5625C9.86458 64.3125 10.1771 63.125 10.4688 62C10.7188 60.875 10.9271 59.9167 11.0938 59.125C11.2604 58.3333 11.3646 57.875 11.4062 57.75C11.4896 57.4167 11.5729 57.0625 11.6562 56.6875C11.7396 56.3125 11.8229 55.8958 11.9062 55.4375C10.9479 56.4375 10.0521 57.4583 9.21875 58.5C8.34375 59.5833 7.59375 60.6875 6.96875 61.8125C6.30208 62.9375 5.78125 64.0625 5.40625 65.1875C4.98958 66.3125 4.76042 67.4167 4.71875 68.5ZM44.5312 59.625C42.4479 59.625 40.5521 59.125 38.8438 58.125C37.1771 57.125 35.7396 55.75 34.5312 54C33.3646 52.25 32.4688 50.2083 31.8438 47.875C31.2604 45.5 31.0104 42.9792 31.0938 40.3125C31.1771 37.8125 31.4896 35.1042 32.0312 32.1875C32.6146 29.2708 33.4271 26.3542 34.4688 23.4375C35.5104 20.4792 36.7604 17.6458 38.2188 14.9375C39.7188 12.1875 41.4271 9.77083 43.3438 7.6875C45.2604 5.60417 47.3854 3.9375 49.7188 2.6875C52.0521 1.39583 54.6146 0.75 57.4062 0.75C59.1146 0.75 60.5521 1.10417 61.7188 1.8125C62.9271 2.47917 63.8854 3.375 64.5938 4.5C65.3438 5.625 65.8646 6.89583 66.1562 8.3125C66.4479 9.72917 66.5729 11.1667 66.5312 12.625C66.4479 14 66.2396 15.3333 65.9062 16.625C65.6146 17.9167 65.1771 19.0833 64.5938 20.125C64.0521 21.125 63.3646 21.9375 62.5312 22.5625C61.7396 23.1458 60.8229 23.4375 59.7812 23.4375C59.2812 23.3958 58.8021 23.2292 58.3438 22.9375C57.9271 22.6875 57.4896 22.3125 57.0312 21.8125C56.6146 21.3125 56.2188 20.5833 55.8438 19.625C56.9688 19.1667 57.8438 18.375 58.4688 17.25C59.1354 16.0833 59.6354 14.875 59.9688 13.625C60.3438 12.2083 60.5938 10.625 60.7188 8.875C60.8021 7.16667 60.4479 5.91667 59.6562 5.125C58.8646 4.33333 57.9688 3.9375 56.9688 3.9375C55.0104 3.9375 52.9479 4.95833 50.7812 7C48.6146 9.04167 46.5938 11.8125 44.7188 15.3125C42.8854 18.7708 41.3229 22.8125 40.0312 27.4375C38.7812 32.0625 38.0521 36.9583 37.8438 42.125C37.7604 44.4583 37.9062 46.4375 38.2812 48.0625C38.6979 49.6875 39.2604 51.0208 39.9688 52.0625C40.7188 53.1042 41.5521 53.8542 42.4688 54.3125C43.3854 54.7708 44.3021 55 45.2188 55C46.6771 55 48.0521 54.6875 49.3438 54.0625C50.6354 53.4375 51.8021 52.6667 52.8438 51.75C53.9271 50.8333 54.8438 49.875 55.5938 48.875C56.3854 47.9167 56.9896 47.0625 57.4062 46.3125C57.6979 45.7708 58.0104 45.4375 58.3438 45.3125C58.6771 45.1875 58.9688 45.2292 59.2188 45.4375C59.4688 45.6042 59.6354 45.8958 59.7188 46.3125C59.8021 46.6875 59.7188 47.1458 59.4688 47.6875C58.7604 49.1042 57.8854 50.5208 56.8438 51.9375C55.8438 53.3542 54.6979 54.625 53.4062 55.75C52.1562 56.9167 50.7812 57.8542 49.2812 58.5625C47.7812 59.2708 46.1979 59.625 44.5312 59.625ZM98.2812 35.5625C97.6979 36.3958 96.9479 37.4375 96.0312 38.6875C95.1146 39.8958 94.1562 41.125 93.1562 42.375C92.1979 43.5833 91.2396 44.7083 90.2812 45.75C89.3646 46.75 88.5938 47.4583 87.9688 47.875C87.5521 48.125 87.0729 48.3333 86.5312 48.5C85.9896 48.6667 85.4271 48.7708 84.8438 48.8125C84.3021 48.8542 83.7812 48.8125 83.2812 48.6875C82.7812 48.6042 82.3438 48.4375 81.9688 48.1875C81.5938 47.8958 81.2812 47.4792 81.0312 46.9375C80.8229 46.4792 80.6146 45.875 80.4062 45.125C80.2396 44.375 80.1771 43.4375 80.2188 42.3125C79.2188 43.9792 78.1146 45.2708 76.9062 46.1875C75.6979 47.0625 74.5521 47.7083 73.4688 48.125C72.2188 48.5833 70.9688 48.8542 69.7188 48.9375C69.1354 48.9375 68.5104 48.7292 67.8438 48.3125C67.1771 47.9375 66.6146 47.3333 66.1562 46.5C65.6979 45.625 65.4062 44.5208 65.2812 43.1875C65.1562 41.8125 65.3229 40.1875 65.7812 38.3125C66.3646 35.7708 67.2812 33.4583 68.5312 31.375C69.8229 29.2917 71.2188 27.5208 72.7188 26.0625C74.2188 24.5625 75.6979 23.4375 77.1562 22.6875C78.6146 21.9375 79.8229 21.6042 80.7812 21.6875C81.9062 21.8958 82.8229 22.2292 83.5312 22.6875C84.1146 23.1042 84.4896 23.7292 84.6562 24.5625C84.8646 25.3542 84.5312 26.4167 83.6562 27.75C84.2396 27.625 84.7188 27.5417 85.0938 27.5C85.5104 27.4583 85.8229 27.4375 86.0312 27.4375C86.2812 27.4375 86.4479 27.4583 86.5312 27.5C86.5729 27.5833 86.5938 27.7708 86.5938 28.0625C86.5938 28.3125 86.5312 28.7917 86.4062 29.5C86.2812 30.2083 86.0938 31.1667 85.8438 32.375C85.5938 33.5833 85.2604 35.1458 84.8438 37.0625C84.7604 37.4375 84.6771 37.7917 84.5938 38.125C84.5521 38.4167 84.4896 38.7292 84.4062 39.0625C84.3646 39.3542 84.3021 39.7083 84.2188 40.125C84.1354 40.5417 84.0312 41.0625 83.9062 41.6875C83.8646 42.0625 83.8438 42.4792 83.8438 42.9375C83.8854 43.3542 83.9688 43.75 84.0938 44.125C84.2188 44.5 84.4062 44.8125 84.6562 45.0625C84.9479 45.2708 85.3438 45.375 85.8438 45.375C86.2604 45.375 86.8021 45.125 87.4688 44.625C88.1354 44.0833 88.8438 43.4167 89.5938 42.625C90.3438 41.7917 91.1146 40.8958 91.9062 39.9375C92.7396 38.9375 93.5104 37.9792 94.2188 37.0625C94.9271 36.1458 95.5521 35.3333 96.0938 34.625C96.6771 33.9167 97.0938 33.3958 97.3438 33.0625C97.6771 32.6875 98.0104 32.4792 98.3438 32.4375C98.6771 32.3542 98.9271 32.4375 99.0938 32.6875C99.2604 32.9375 99.2812 33.3125 99.1562 33.8125C99.0729 34.3125 98.7812 34.8958 98.2812 35.5625ZM79.9688 38.3125C80.1771 37.4792 80.4271 36.5 80.7188 35.375C81.0104 34.25 81.2604 33.1667 81.4688 32.125C81.6771 31.0833 81.8229 30.2292 81.9062 29.5625C82.0312 28.8542 82.0104 28.5208 81.8438 28.5625C81.6354 28.6042 81.4062 28.6667 81.1562 28.75C80.9479 28.8333 80.6771 28.8958 80.3438 28.9375C80.0104 28.9792 79.6771 29.0417 79.3438 29.125C79.6771 28.4583 79.8646 27.9167 79.9062 27.5C79.9896 27.0417 80.0104 26.6875 79.9688 26.4375C79.9271 26.1458 79.8438 25.9167 79.7188 25.75C79.2604 25.375 78.4479 25.6875 77.2812 26.6875C76.1562 27.6458 74.8438 29.4375 73.3438 32.0625C72.7188 33.1458 72.2188 34.3125 71.8438 35.5625C71.4688 36.7708 71.1979 37.9167 71.0312 39C70.9062 40.0833 70.8854 41.0417 70.9688 41.875C71.0521 42.6667 71.2188 43.1875 71.4688 43.4375C71.9271 43.8958 72.4479 44.125 73.0312 44.125C73.6146 44.0833 74.1979 43.9167 74.7812 43.625C75.4062 43.2917 76.0104 42.875 76.5938 42.375C77.2188 41.875 77.7604 41.3542 78.2188 40.8125C78.7188 40.2708 79.1146 39.7708 79.4062 39.3125C79.7396 38.8542 79.9271 38.5208 79.9688 38.3125ZM102.906 45.875C103.156 46.0417 103.469 46.125 103.844 46.125C104.26 46.125 104.656 46.0417 105.031 45.875C105.448 45.7083 105.823 45.4792 106.156 45.1875C106.531 44.8958 106.802 44.5208 106.969 44.0625C107.135 43.6042 107.135 42.9583 106.969 42.125C106.802 41.25 106.531 40.3333 106.156 39.375C105.823 38.375 105.448 37.375 105.031 36.375C104.615 35.375 104.26 34.4583 103.969 33.625C103.719 33 103.51 32.4167 103.344 31.875C103.177 31.4167 103.01 30.9792 102.844 30.5625C102.719 30.1042 102.615 29.7917 102.531 29.625C102.323 29.9583 101.948 30.5 101.406 31.25C100.906 32 100.344 32.7917 99.7188 33.625C99.1354 34.4167 98.5729 35.1667 98.0312 35.875C97.4896 36.5417 97.1146 37 96.9062 37.25C96.5729 37.625 96.2396 37.8542 95.9062 37.9375C95.6146 37.9792 95.3646 37.9167 95.1562 37.75C94.9479 37.5417 94.8229 37.2708 94.7812 36.9375C94.7812 36.5625 94.9479 36.125 95.2812 35.625C95.5312 35.2917 95.9062 34.7708 96.4062 34.0625C96.9062 33.3125 97.4062 32.5625 97.9062 31.8125C98.4062 31.0208 98.8646 30.3333 99.2812 29.75C99.6979 29.125 99.9271 28.75 99.9688 28.625C100.052 28.2917 99.9271 27.8542 99.5938 27.3125C99.3021 26.7708 99.2604 26.1458 99.4688 25.4375C99.6354 24.8542 100.01 24.1875 100.594 23.4375C101.177 22.6458 101.865 21.9375 102.656 21.3125C103.448 20.6875 104.26 20.2292 105.094 19.9375C105.927 19.6042 106.677 19.6042 107.344 19.9375C107.885 20.2708 108.323 20.6458 108.656 21.0625C108.99 21.4375 109.115 21.8333 109.031 22.25C108.948 22.4583 108.823 22.7292 108.656 23.0625C108.49 23.3958 108.24 23.8125 107.906 24.3125C107.573 24.7708 107.094 25.375 106.469 26.125C106.594 27.0833 106.76 27.9583 106.969 28.75C107.219 29.5417 107.448 30.2292 107.656 30.8125C107.906 31.5208 108.177 32.1667 108.469 32.75C108.844 33.5 109.24 34.2708 109.656 35.0625C110.073 35.8542 110.448 36.6458 110.781 37.4375C111.115 38.1875 111.385 38.8958 111.594 39.5625C111.802 40.2292 111.865 40.7917 111.781 41.25C111.656 41.9583 111.281 42.8125 110.656 43.8125C110.073 44.8125 109.323 45.7917 108.406 46.75C107.531 47.6667 106.51 48.4583 105.344 49.125C104.219 49.7917 103.031 50.125 101.781 50.125C100.906 50.125 100.052 49.8542 99.2188 49.3125C98.4271 48.7708 97.7396 48.1458 97.1562 47.4375C96.6146 46.6875 96.1979 45.9583 95.9062 45.25C95.6562 44.5417 95.6354 44 95.8438 43.625C96.0938 43.125 96.3229 42.7292 96.5312 42.4375C96.7396 42.1458 97.0521 41.8125 97.4688 41.4375C97.6354 41.3125 97.8438 41.1667 98.0938 41C98.3021 40.875 98.5938 40.75 98.9688 40.625C99.3438 40.5 99.7812 40.3542 100.281 40.1875C100.698 41.4792 101.073 42.5 101.406 43.25C101.74 43.9583 102.01 44.5208 102.219 44.9375C102.469 45.3958 102.698 45.7083 102.906 45.875ZM130.344 11.1875C130.219 11.6458 129.969 12.1042 129.594 12.5625C129.26 12.9792 128.865 13.3333 128.406 13.625C127.99 13.875 127.552 14.0417 127.094 14.125C126.635 14.2083 126.26 14.125 125.969 13.875C125.094 13.2083 124.635 12.5 124.594 11.75C124.552 10.9583 124.74 10.2292 125.156 9.5625C125.573 8.85417 126.094 8.27083 126.719 7.8125C127.344 7.3125 127.885 7.02083 128.344 6.9375C128.802 6.85417 129.177 6.95833 129.469 7.25C129.802 7.5 130.052 7.85417 130.219 8.3125C130.385 8.72917 130.469 9.20833 130.469 9.75C130.51 10.2917 130.469 10.7708 130.344 11.1875ZM121.719 24.5C121.927 24.25 122.323 24.0417 122.906 23.875C123.49 23.7083 124.094 23.5833 124.719 23.5C125.344 23.375 125.906 23.3125 126.406 23.3125C126.948 23.2708 127.26 23.2708 127.344 23.3125C127.385 23.3542 127.281 23.7917 127.031 24.625C126.781 25.4583 126.469 26.4375 126.094 27.5625C125.719 28.6875 125.323 29.8542 124.906 31.0625C124.49 32.2292 124.177 33.1875 123.969 33.9375C123.76 34.6875 123.51 35.5417 123.219 36.5C122.927 37.4167 122.656 38.3333 122.406 39.25C122.198 40.125 122.052 40.9583 121.969 41.75C121.885 42.5417 121.948 43.1458 122.156 43.5625C122.365 44.0625 122.594 44.4167 122.844 44.625C123.094 44.7917 123.365 44.875 123.656 44.875C124.49 44.875 125.531 44.4167 126.781 43.5C128.073 42.5833 129.365 41.5 130.656 40.25C131.99 38.9583 133.219 37.6667 134.344 36.375C135.469 35.0417 136.302 33.9792 136.844 33.1875C137.177 32.7708 137.51 32.5 137.844 32.375C138.219 32.25 138.51 32.2708 138.719 32.4375C138.969 32.6042 139.094 32.875 139.094 33.25C139.135 33.625 139.01 34.0625 138.719 34.5625C138.052 35.7292 137.073 37.125 135.781 38.75C134.49 40.3333 133.115 41.875 131.656 43.375C130.198 44.8333 128.76 46.0833 127.344 47.125C125.969 48.1667 124.844 48.7083 123.969 48.75C123.26 48.7917 122.552 48.6667 121.844 48.375C121.177 48.125 120.552 47.7708 119.969 47.3125C119.427 46.8125 118.969 46.25 118.594 45.625C118.219 44.9583 118.01 44.2708 117.969 43.5625C117.844 42.5208 117.844 41.1042 117.969 39.3125C118.094 37.4792 118.323 35.625 118.656 33.75C118.99 31.8333 119.406 30.0208 119.906 28.3125C120.448 26.6042 121.052 25.3333 121.719 24.5ZM166.219 35.5625C165.635 36.3958 164.885 37.4375 163.969 38.6875C163.052 39.8958 162.094 41.125 161.094 42.375C160.135 43.5833 159.177 44.7083 158.219 45.75C157.302 46.75 156.531 47.4583 155.906 47.875C155.49 48.125 155.01 48.3333 154.469 48.5C153.927 48.6667 153.365 48.7708 152.781 48.8125C152.24 48.8542 151.719 48.8125 151.219 48.6875C150.719 48.6042 150.281 48.4375 149.906 48.1875C149.531 47.8958 149.219 47.4792 148.969 46.9375C148.76 46.4792 148.552 45.875 148.344 45.125C148.177 44.375 148.115 43.4375 148.156 42.3125C147.156 43.9792 146.052 45.2708 144.844 46.1875C143.635 47.0625 142.49 47.7083 141.406 48.125C140.156 48.5833 138.906 48.8542 137.656 48.9375C137.073 48.9375 136.448 48.7292 135.781 48.3125C135.115 47.9375 134.552 47.3333 134.094 46.5C133.635 45.625 133.344 44.5208 133.219 43.1875C133.094 41.8125 133.26 40.1875 133.719 38.3125C134.302 35.7708 135.219 33.4583 136.469 31.375C137.76 29.2917 139.156 27.5208 140.656 26.0625C142.156 24.5625 143.635 23.4375 145.094 22.6875C146.552 21.9375 147.76 21.6042 148.719 21.6875C149.844 21.8958 150.76 22.2292 151.469 22.6875C152.052 23.1042 152.427 23.7292 152.594 24.5625C152.802 25.3542 152.469 26.4167 151.594 27.75C152.177 27.625 152.656 27.5417 153.031 27.5C153.448 27.4583 153.76 27.4375 153.969 27.4375C154.219 27.4375 154.385 27.4583 154.469 27.5C154.51 27.5833 154.531 27.7708 154.531 28.0625C154.531 28.3125 154.469 28.7917 154.344 29.5C154.219 30.2083 154.031 31.1667 153.781 32.375C153.531 33.5833 153.198 35.1458 152.781 37.0625C152.698 37.4375 152.615 37.7917 152.531 38.125C152.49 38.4167 152.427 38.7292 152.344 39.0625C152.302 39.3542 152.24 39.7083 152.156 40.125C152.073 40.5417 151.969 41.0625 151.844 41.6875C151.802 42.0625 151.781 42.4792 151.781 42.9375C151.823 43.3542 151.906 43.75 152.031 44.125C152.156 44.5 152.344 44.8125 152.594 45.0625C152.885 45.2708 153.281 45.375 153.781 45.375C154.198 45.375 154.74 45.125 155.406 44.625C156.073 44.0833 156.781 43.4167 157.531 42.625C158.281 41.7917 159.052 40.8958 159.844 39.9375C160.677 38.9375 161.448 37.9792 162.156 37.0625C162.865 36.1458 163.49 35.3333 164.031 34.625C164.615 33.9167 165.031 33.3958 165.281 33.0625C165.615 32.6875 165.948 32.4792 166.281 32.4375C166.615 32.3542 166.865 32.4375 167.031 32.6875C167.198 32.9375 167.219 33.3125 167.094 33.8125C167.01 34.3125 166.719 34.8958 166.219 35.5625ZM147.906 38.3125C148.115 37.4792 148.365 36.5 148.656 35.375C148.948 34.25 149.198 33.1667 149.406 32.125C149.615 31.0833 149.76 30.2292 149.844 29.5625C149.969 28.8542 149.948 28.5208 149.781 28.5625C149.573 28.6042 149.344 28.6667 149.094 28.75C148.885 28.8333 148.615 28.8958 148.281 28.9375C147.948 28.9792 147.615 29.0417 147.281 29.125C147.615 28.4583 147.802 27.9167 147.844 27.5C147.927 27.0417 147.948 26.6875 147.906 26.4375C147.865 26.1458 147.781 25.9167 147.656 25.75C147.198 25.375 146.385 25.6875 145.219 26.6875C144.094 27.6458 142.781 29.4375 141.281 32.0625C140.656 33.1458 140.156 34.3125 139.781 35.5625C139.406 36.7708 139.135 37.9167 138.969 39C138.844 40.0833 138.823 41.0417 138.906 41.875C138.99 42.6667 139.156 43.1875 139.406 43.4375C139.865 43.8958 140.385 44.125 140.969 44.125C141.552 44.0833 142.135 43.9167 142.719 43.625C143.344 43.2917 143.948 42.875 144.531 42.375C145.156 41.875 145.698 41.3542 146.156 40.8125C146.656 40.2708 147.052 39.7708 147.344 39.3125C147.677 38.8542 147.865 38.5208 147.906 38.3125Z" fill="#F3F3F3"/>
</svg>
